<svg version="1.0" xmlns="http://www.w3.org/2000/svg" xmlns:xlink="http://www.w3.org/1999/xlink" x="0" y="0" width="2400" height="2829.8905770760534" viewBox="152.7506446838379 104.66093826293945 34.498695373535156 40.678138732910156" preserveAspectRatio="xMidYMid meet" color-interpolation-filters="sRGB"><g><defs><linearGradient id="92" x1="0%" y1="0%" x2="100%" y2="0%"><stop offset="0%" stop-color="#fa71cd"></stop> <stop offset="100%" stop-color="#9b59b6"></stop></linearGradient><linearGradient id="93" x1="0%" y1="0%" x2="100%" y2="0%"><stop offset="0%" stop-color="#f9d423"></stop> <stop offset="100%" stop-color="#f83600"></stop></linearGradient><linearGradient id="94" x1="0%" y1="0%" x2="100%" y2="0%"><stop offset="0%" stop-color="#0064d2"></stop> <stop offset="100%" stop-color="#1cb0f6"></stop></linearGradient><linearGradient id="95" x1="0%" y1="0%" x2="100%" y2="0%"><stop offset="0%" stop-color="#f00978"></stop> <stop offset="100%" stop-color="#3f51b1"></stop></linearGradient><linearGradient id="96" x1="0%" y1="0%" x2="100%" y2="0%"><stop offset="0%" stop-color="#7873f5"></stop> <stop offset="100%" stop-color="#ec77ab"></stop></linearGradient><linearGradient id="97" x1="0%" y1="0%" x2="100%" y2="0%"><stop offset="0%" stop-color="#f9d423"></stop> <stop offset="100%" stop-color="#e14fad"></stop></linearGradient><linearGradient id="98" x1="0%" y1="0%" x2="100%" y2="0%"><stop offset="0%" stop-color="#009efd"></stop> <stop offset="100%" stop-color="#2af598"></stop></linearGradient><linearGradient id="99" x1="0%" y1="0%" x2="100%" y2="0%"><stop offset="0%" stop-color="#ffcc00"></stop> <stop offset="100%" stop-color="#00b140"></stop></linearGradient><linearGradient id="100" x1="0%" y1="0%" x2="100%" y2="0%"><stop offset="0%" stop-color="#d51007"></stop> <stop offset="100%" stop-color="#ff8177"></stop></linearGradient><linearGradient id="102" x1="0%" y1="0%" x2="100%" y2="0%"><stop offset="0%" stop-color="#a2b6df"></stop> <stop offset="100%" stop-color="#0c3483"></stop></linearGradient><linearGradient id="103" x1="0%" y1="0%" x2="100%" y2="0%"><stop offset="0%" stop-color="#7ac5d8"></stop> <stop offset="100%" stop-color="#eea2a2"></stop></linearGradient><linearGradient id="104" x1="0%" y1="0%" x2="100%" y2="0%"><stop offset="0%" stop-color="#00ecbc"></stop> <stop offset="100%" stop-color="#007adf"></stop></linearGradient><linearGradient id="105" x1="0%" y1="0%" x2="100%" y2="0%"><stop offset="0%" stop-color="#b88746"></stop> <stop offset="100%" stop-color="#fdf5a6"></stop></linearGradient></defs><g fill="#333" class="iconlettersvg-g iconlettersvg" transform="translate(153.08887481689453,105.00084312574472)"><g><g class="tp-name"><g transform="scale(1)"><g transform="translate(0, 0)"><g class="name-imagesvg"><g><rect fill="#333" fill-opacity="0" stroke-width="2" x="0" y="0" width="33.81149536270003" height="40" class="image-rect"></rect> <svg x="0" y="0" width="33.81149536270003" height="40" filtersec="colorsb5507910084" class="image-svg-svg primary" style="overflow: visible;"><svg xmlns="http://www.w3.org/2000/svg" viewBox="0 0 102.84 121.68"><path d="M39.4 60.84A15.55 15.55 0 0 1 55 45.28H38.85a7.08 7.08 0 1 1-.53-14.15h38.53A15.56 15.56 0 0 0 76.82 0h-38a38.2 38.2 0 0 0-1.24 76.4H55a15.56 15.56 0 0 1-15.6-15.56z" fill="#ffd100"></path><path d="M44.11 106.12a15.55 15.55 0 0 1 15.54-15.56h-33a15.56 15.56 0 0 0 0 31.12h33a15.57 15.57 0 0 1-15.54-15.56z" fill="#f0f"></path><path d="M64.65 45.28H55a15.56 15.56 0 0 1 0 31.12h9.68a7.08 7.08 0 0 1 0 14.16h-5a15.56 15.56 0 0 1 0 31.12h5a38.2 38.2 0 0 0 0-76.4z" fill="#00d5ff"></path><path d="M70.52 60.84A15.56 15.56 0 1 0 55 76.4a15.56 15.56 0 0 0 15.52-15.56z" fill="#45ae17"></path><path d="M75.22 106.12a15.56 15.56 0 1 0-15.57 15.56 15.56 15.56 0 0 0 15.57-15.56z" fill="#2300fd"></path></svg></svg> </g></g></g></g></g></g> </g><defs v-gra="od"></defs></g></svg>