<svg version="1.0" xmlns="http://www.w3.org/2000/svg" xmlns:xlink="http://www.w3.org/1999/xlink" x="0" y="0" width="2400" height="3544.743231493893" viewBox="156.27633392333985 104.7304736328125 27.447332153320314 40.53906036376953" preserveAspectRatio="xMidYMid meet" color-interpolation-filters="sRGB"><g><defs><linearGradient id="92" x1="0%" y1="0%" x2="100%" y2="0%"><stop offset="0%" stop-color="#fa71cd"></stop> <stop offset="100%" stop-color="#9b59b6"></stop></linearGradient><linearGradient id="93" x1="0%" y1="0%" x2="100%" y2="0%"><stop offset="0%" stop-color="#f9d423"></stop> <stop offset="100%" stop-color="#f83600"></stop></linearGradient><linearGradient id="94" x1="0%" y1="0%" x2="100%" y2="0%"><stop offset="0%" stop-color="#0064d2"></stop> <stop offset="100%" stop-color="#1cb0f6"></stop></linearGradient><linearGradient id="95" x1="0%" y1="0%" x2="100%" y2="0%"><stop offset="0%" stop-color="#f00978"></stop> <stop offset="100%" stop-color="#3f51b1"></stop></linearGradient><linearGradient id="96" x1="0%" y1="0%" x2="100%" y2="0%"><stop offset="0%" stop-color="#7873f5"></stop> <stop offset="100%" stop-color="#ec77ab"></stop></linearGradient><linearGradient id="97" x1="0%" y1="0%" x2="100%" y2="0%"><stop offset="0%" stop-color="#f9d423"></stop> <stop offset="100%" stop-color="#e14fad"></stop></linearGradient><linearGradient id="98" x1="0%" y1="0%" x2="100%" y2="0%"><stop offset="0%" stop-color="#009efd"></stop> <stop offset="100%" stop-color="#2af598"></stop></linearGradient><linearGradient id="99" x1="0%" y1="0%" x2="100%" y2="0%"><stop offset="0%" stop-color="#ffcc00"></stop> <stop offset="100%" stop-color="#00b140"></stop></linearGradient><linearGradient id="100" x1="0%" y1="0%" x2="100%" y2="0%"><stop offset="0%" stop-color="#d51007"></stop> <stop offset="100%" stop-color="#ff8177"></stop></linearGradient><linearGradient id="102" x1="0%" y1="0%" x2="100%" y2="0%"><stop offset="0%" stop-color="#a2b6df"></stop> <stop offset="100%" stop-color="#0c3483"></stop></linearGradient><linearGradient id="103" x1="0%" y1="0%" x2="100%" y2="0%"><stop offset="0%" stop-color="#7ac5d8"></stop> <stop offset="100%" stop-color="#eea2a2"></stop></linearGradient><linearGradient id="104" x1="0%" y1="0%" x2="100%" y2="0%"><stop offset="0%" stop-color="#00ecbc"></stop> <stop offset="100%" stop-color="#007adf"></stop></linearGradient><linearGradient id="105" x1="0%" y1="0%" x2="100%" y2="0%"><stop offset="0%" stop-color="#b88746"></stop> <stop offset="100%" stop-color="#fdf5a6"></stop></linearGradient></defs><g fill="#333" class="iconlettersvg-g iconlettersvg" transform="translate(156.5777280330658,105.00043869763613)"><g><g class="tp-name"><g transform="scale(1)"><g transform="translate(0, 0)"><g class="name-imagesvg"><g><rect fill="#333" fill-opacity="0" stroke-width="2" x="0" y="0" width="26.876847538546883" height="40" class="image-rect"></rect> <svg x="0" y="0" width="26.876847538546883" height="40" filtersec="colorsb1766643183" class="image-svg-svg primary" style="overflow: visible;"><svg xmlns="http://www.w3.org/2000/svg" viewBox="0 0 95.91 143.15"><path d="M40.05 81c6 1.83 11.71 3.09 16.56 5 18.13 7.24 13.78 22.65 1.92 28.55a4.5 4.5 0 0 0-2.52 4v19.24a4.53 4.53 0 0 0 5.77 4.34c40.36-11.13 48.52-63.79 4.87-81.21-6.59-2.63-13-4.05-18.73-5.79-10.45-3.13-16.77-7.92-17.8-13.34-.81-4.29 1.63-9.17 4.46-11.4A20.47 20.47 0 0 1 38 28.2a4.49 4.49 0 0 0 2.45-4V5A4.53 4.53 0 0 0 34.69.61 48.5 48.5 0 0 0 17.8 9.16C8.53 16.48.53 31 3.53 46.82 5.26 56 12.3 72.59 40.05 81z" fill="#d344b0"></path><path d="M61.62.13A4.53 4.53 0 0 0 56 4.51v18.94a4.49 4.49 0 0 0 2.77 4.15 17.81 17.81 0 0 1 8.93 7.7 13.53 13.53 0 0 0 23.8-12.88C85.8 11.86 75.25 3.45 61.62.13z" fill="#f65349"></path><path d="M40.46 138.64v-18.7a4.55 4.55 0 0 0-3.09-4.28c-5.18-1.82-9.45-5.14-11.67-9.37a13.54 13.54 0 1 0-24.24 12c6.36 12.6 18.87 21.61 33.48 24.71a4.53 4.53 0 0 0 5.52-4.36z" fill="#fcc048"></path></svg></svg> </g></g></g></g></g></g> </g><defs v-gra="od"></defs></g></svg>