<svg version="1.0" xmlns="http://www.w3.org/2000/svg" xmlns:xlink="http://www.w3.org/1999/xlink" x="0" y="0" width="2400" height="405.44804671286977" viewBox="36.05689178466797 102.37209259033203 267.88624694824216 45.25581481933594" preserveAspectRatio="xMidYMid meet" color-interpolation-filters="sRGB"><g><defs><linearGradient id="92" x1="0%" y1="0%" x2="100%" y2="0%"><stop offset="0%" stop-color="#fa71cd"></stop> <stop offset="100%" stop-color="#9b59b6"></stop></linearGradient><linearGradient id="93" x1="0%" y1="0%" x2="100%" y2="0%"><stop offset="0%" stop-color="#f9d423"></stop> <stop offset="100%" stop-color="#f83600"></stop></linearGradient><linearGradient id="94" x1="0%" y1="0%" x2="100%" y2="0%"><stop offset="0%" stop-color="#0064d2"></stop> <stop offset="100%" stop-color="#1cb0f6"></stop></linearGradient><linearGradient id="95" x1="0%" y1="0%" x2="100%" y2="0%"><stop offset="0%" stop-color="#f00978"></stop> <stop offset="100%" stop-color="#3f51b1"></stop></linearGradient><linearGradient id="96" x1="0%" y1="0%" x2="100%" y2="0%"><stop offset="0%" stop-color="#7873f5"></stop> <stop offset="100%" stop-color="#ec77ab"></stop></linearGradient><linearGradient id="97" x1="0%" y1="0%" x2="100%" y2="0%"><stop offset="0%" stop-color="#f9d423"></stop> <stop offset="100%" stop-color="#e14fad"></stop></linearGradient><linearGradient id="98" x1="0%" y1="0%" x2="100%" y2="0%"><stop offset="0%" stop-color="#009efd"></stop> <stop offset="100%" stop-color="#2af598"></stop></linearGradient><linearGradient id="99" x1="0%" y1="0%" x2="100%" y2="0%"><stop offset="0%" stop-color="#ffcc00"></stop> <stop offset="100%" stop-color="#00b140"></stop></linearGradient><linearGradient id="100" x1="0%" y1="0%" x2="100%" y2="0%"><stop offset="0%" stop-color="#d51007"></stop> <stop offset="100%" stop-color="#ff8177"></stop></linearGradient><linearGradient id="102" x1="0%" y1="0%" x2="100%" y2="0%"><stop offset="0%" stop-color="#a2b6df"></stop> <stop offset="100%" stop-color="#0c3483"></stop></linearGradient><linearGradient id="103" x1="0%" y1="0%" x2="100%" y2="0%"><stop offset="0%" stop-color="#7ac5d8"></stop> <stop offset="100%" stop-color="#eea2a2"></stop></linearGradient><linearGradient id="104" x1="0%" y1="0%" x2="100%" y2="0%"><stop offset="0%" stop-color="#00ecbc"></stop> <stop offset="100%" stop-color="#007adf"></stop></linearGradient><linearGradient id="105" x1="0%" y1="0%" x2="100%" y2="0%"><stop offset="0%" stop-color="#b88746"></stop> <stop offset="100%" stop-color="#fdf5a6"></stop></linearGradient></defs><g fill="#fff" class="iconlettersvg-g iconlettersvg" transform="translate(38.6832275390625,105.00011451856699)"><g><g class="tp-name"><g transform="scale(1)"><g transform="translate(0, 0)"><g class="name-imagesvg"><g><rect fill="#fff" fill-opacity="0" stroke-width="2" x="0" y="0" width="33.81149536270003" height="40" class="image-rect"></rect> <svg filter="url(#colors1526526572)" x="0" y="0" width="33.81149536270003" height="40" filtersec="colorsf6260325591" class="image-svg-svg primary" style="overflow: visible;"><svg xmlns="http://www.w3.org/2000/svg" viewBox="0 0 102.84 121.68"><path d="M39.4 60.84A15.55 15.55 0 0 1 55 45.28H38.85a7.08 7.08 0 1 1-.53-14.15h38.53A15.56 15.56 0 0 0 76.82 0h-38a38.2 38.2 0 0 0-1.24 76.4H55a15.56 15.56 0 0 1-15.6-15.56z" fill="#ffd100"></path><path d="M44.11 106.12a15.55 15.55 0 0 1 15.54-15.56h-33a15.56 15.56 0 0 0 0 31.12h33a15.57 15.57 0 0 1-15.54-15.56z" fill="#f0f"></path><path d="M64.65 45.28H55a15.56 15.56 0 0 1 0 31.12h9.68a7.08 7.08 0 0 1 0 14.16h-5a15.56 15.56 0 0 1 0 31.12h5a38.2 38.2 0 0 0 0-76.4z" fill="#00d5ff"></path><path d="M70.52 60.84A15.56 15.56 0 1 0 55 76.4a15.56 15.56 0 0 0 15.52-15.56z" fill="#45ae17"></path><path d="M75.22 106.12a15.56 15.56 0 1 0-15.57 15.56 15.56 15.56 0 0 0 15.57-15.56z" fill="#2300fd"></path></svg></svg> <defs><filter id="colors1526526572"><feColorMatrix type="matrix" values="0 0 0 0 0.99609375  0 0 0 0 0.99609375  0 0 0 0 0.99609375  0 0 0 1 0" class="icon-feColorMatrix "></feColorMatrix></filter> <filter id="colorsf6260325591"><feColorMatrix type="matrix" values="0 0 0 0 0.99609375  0 0 0 0 0.99609375  0 0 0 0 0.99609375  0 0 0 1 0" class="icon-fecolormatrix"></feColorMatrix></filter> <filter id="colorsb9294109526"><feColorMatrix type="matrix" values="0 0 0 0 0  0 0 0 0 0  0 0 0 0 0  0 0 0 1 0" class="icon-fecolormatrix"></feColorMatrix></filter></defs></g></g></g><g transform="translate(33.81149536270003, 0)"><g class="name-imagesvg"><g><rect fill="#fff" fill-opacity="0" stroke-width="2" x="0" y="0" width="29.28589068066684" height="40" class="image-rect"></rect> <svg filter="url(#colors5809008829)" x="0" y="0" width="29.28589068066684" height="40" filtersec="colorsf4961664200" class="image-svg-svg primary" style="overflow: visible;"><svg xmlns="http://www.w3.org/2000/svg" viewBox="0 0 89.3 121.97"><path d="M49.69 49.7h-7.31a11 11 0 0 1-11-11v-23A15.69 15.69 0 1 0 0 15.71v23a42.42 42.42 0 0 0 42.38 42.41h7.31a40.23 40.23 0 0 0 8.19-.85V41.51a8.19 8.19 0 0 1-8.19 8.19z" fill="#00d5ff"></path><path d="M29.43 106.26a15.71 15.71 0 0 1 15.71-15.71H15.71a15.71 15.71 0 0 0 0 31.42h29.43a15.73 15.73 0 0 1-15.71-15.71z" fill="#ffd100"></path><path d="M73.59 0a15.71 15.71 0 0 0-15.71 15.71v11.52a15.71 15.71 0 1 1 31.42 0v14.28a39.68 39.68 0 0 1-31.42 38.76v2.08a8.21 8.21 0 0 1-8.19 8.2h-4.55a15.71 15.71 0 0 1 0 31.42h4.55A39.66 39.66 0 0 0 89.3 82.35V15.71A15.71 15.71 0 0 0 73.59 0z" fill="#f0f"></path><path d="M89.3 41.51V27.23a15.71 15.71 0 1 0-31.42 0v53A39.67 39.67 0 0 0 89.3 41.51z" fill="#2300fd"></path><circle cx="45.14" cy="106.26" r="15.71" fill="#ee2e0b"></circle></svg></svg> <defs><filter id="colors5809008829"><feColorMatrix type="matrix" values="0 0 0 0 0.99609375  0 0 0 0 0.99609375  0 0 0 0 0.99609375  0 0 0 1 0" class="icon-fecolormatrix"></feColorMatrix></filter> <filter id="colorsf4961664200"><feColorMatrix type="matrix" values="0 0 0 0 0.99609375  0 0 0 0 0.99609375  0 0 0 0 0.99609375  0 0 0 1 0" class="icon-fecolormatrix"></feColorMatrix></filter> <filter id="colorsb2145889197"><feColorMatrix type="matrix" values="0 0 0 0 0  0 0 0 0 0  0 0 0 0 0  0 0 0 1 0" class="icon-fecolormatrix"></feColorMatrix></filter></defs></g></g></g><g transform="translate(63.09738604336687, 0)"><g class="name-imagesvg"><g><rect fill="#fff" fill-opacity="0" stroke-width="2" x="0" y="0" width="33.81149536270003" height="40" class="image-rect"></rect> <svg filter="url(#colors2604639220)" x="0" y="0" width="33.81149536270003" height="40" filtersec="colorsf2249175668" class="image-svg-svg primary" style="overflow: visible;"><svg xmlns="http://www.w3.org/2000/svg" viewBox="0 0 102.84 121.68"><path d="M39.4 60.84A15.55 15.55 0 0 1 55 45.28H38.85a7.08 7.08 0 1 1-.53-14.15h38.53A15.56 15.56 0 0 0 76.82 0h-38a38.2 38.2 0 0 0-1.24 76.4H55a15.56 15.56 0 0 1-15.6-15.56z" fill="#ffd100"></path><path d="M44.11 106.12a15.55 15.55 0 0 1 15.54-15.56h-33a15.56 15.56 0 0 0 0 31.12h33a15.57 15.57 0 0 1-15.54-15.56z" fill="#f0f"></path><path d="M64.65 45.28H55a15.56 15.56 0 0 1 0 31.12h9.68a7.08 7.08 0 0 1 0 14.16h-5a15.56 15.56 0 0 1 0 31.12h5a38.2 38.2 0 0 0 0-76.4z" fill="#00d5ff"></path><path d="M70.52 60.84A15.56 15.56 0 1 0 55 76.4a15.56 15.56 0 0 0 15.52-15.56z" fill="#45ae17"></path><path d="M75.22 106.12a15.56 15.56 0 1 0-15.57 15.56 15.56 15.56 0 0 0 15.57-15.56z" fill="#2300fd"></path></svg></svg> <defs><filter id="colors2604639220"><feColorMatrix type="matrix" values="0 0 0 0 0.99609375  0 0 0 0 0.99609375  0 0 0 0 0.99609375  0 0 0 1 0" class="icon-fecolormatrix"></feColorMatrix></filter> <filter id="colorsf2249175668"><feColorMatrix type="matrix" values="0 0 0 0 0.99609375  0 0 0 0 0.99609375  0 0 0 0 0.99609375  0 0 0 1 0" class="icon-fecolormatrix"></feColorMatrix></filter> <filter id="colorsb7252924282"><feColorMatrix type="matrix" values="0 0 0 0 0  0 0 0 0 0  0 0 0 0 0  0 0 0 1 0" class="icon-fecolormatrix"></feColorMatrix></filter></defs></g></g></g><g transform="translate(96.9088814060669, 0)"><g class="name-imagesvg"><g><rect fill="#fff" fill-opacity="0" stroke-width="2" x="0" y="0" width="30.1119896497001" height="40" class="image-rect"></rect> <svg filter="url(#colors6972962211)" x="0" y="0" width="30.1119896497001" height="40" filtersec="colorsf8515131500" class="image-svg-svg primary" style="overflow: visible;"><svg xmlns="http://www.w3.org/2000/svg" viewBox="0 0 91.85 122.02"><path d="M76.16 0H28.71A32.38 32.38 0 0 1 61 31.42h15.1A15.71 15.71 0 1 0 76.16 0z" fill="#f0f"></path><path d="M45.37 96.1a15.68 15.68 0 0 1-15.67-15v24.76a16 16 0 0 0 15 16.14 15.7 15.7 0 0 0 16.44-14.92V81.05A15.7 15.7 0 0 1 45.37 96.1z" fill="#00d5ff"></path><path d="M29.67 32.38V81A15.69 15.69 0 0 1 61 81V31.38H28.71a1 1 0 0 1 .96 1z" fill="#ffd100"></path><path d="M13 15.71A15.71 15.71 0 0 1 28.71 0H16.17A16 16 0 0 0 0 15a15.71 15.71 0 0 0 15 16.41h13.73A15.71 15.71 0 0 1 13 15.71z" fill="#ffd100"></path><path d="M28.71 0a15.71 15.71 0 0 0 0 31.42H61A32.38 32.38 0 0 0 28.71 0z" fill="#ee2e0b"></path><ellipse cx="45.37" cy="81.05" rx="15.68" ry="15.05" fill="#45ae17"></ellipse></svg></svg> <defs><filter id="colors6972962211"><feColorMatrix type="matrix" values="0 0 0 0 0.99609375  0 0 0 0 0.99609375  0 0 0 0 0.99609375  0 0 0 1 0" class="icon-fecolormatrix"></feColorMatrix></filter> <filter id="colorsf8515131500"><feColorMatrix type="matrix" values="0 0 0 0 0.99609375  0 0 0 0 0.99609375  0 0 0 0 0.99609375  0 0 0 1 0" class="icon-fecolormatrix"></feColorMatrix></filter> <filter id="colorsb5699823063"><feColorMatrix type="matrix" values="0 0 0 0 0  0 0 0 0 0  0 0 0 0 0  0 0 0 1 0" class="icon-fecolormatrix"></feColorMatrix></filter></defs></g></g></g><g transform="translate(127.020871055767, 0)"><g class="name-imagesvg"><g><rect fill="#fff" fill-opacity="0" stroke-width="2" x="0" y="0" width="29.206866130517163" height="40" class="image-rect"></rect> <svg filter="url(#colors8404392961)" x="0" y="0" width="29.206866130517163" height="40" filtersec="colorsf6527516912" class="image-svg-svg primary" style="overflow: visible;"><svg xmlns="http://www.w3.org/2000/svg" viewBox="0 0 89.29 122.3"><path d="M73.59 90.85H42.38a11 11 0 0 1-11-11V77H17.53a15.71 15.71 0 0 1 0-31.42h13.89v-2.9a11 11 0 0 1 11-11H41.3A15.69 15.69 0 1 1 40.85.3 42.41 42.41 0 0 0 0 42.67v37.22a42.43 42.43 0 0 0 42.38 42.41h31.21a15.71 15.71 0 0 0 0-31.42z" fill="#f0f"></path><path d="M61.4 77a15.71 15.71 0 1 0 0-31.42h-30V77z" fill="#00d5ff"></path><path d="M1.83 61.3A15.7 15.7 0 0 0 17.52 77h13.9V45.57H17.53a15.71 15.71 0 0 0-15.7 15.72z" fill="#2300fd"></path><path d="M56.74 16a15.68 15.68 0 0 1-15.41 15.7h32.29a15.71 15.71 0 0 0 0-31.4H41.48A15.7 15.7 0 0 1 56.74 16z" fill="#ffd100"></path><path d="M25 16A16 16 0 1 0 41 0h-.65A16 16 0 0 0 25 16z" fill="#ee2e0b"></path></svg></svg> <defs><filter id="colors8404392961"><feColorMatrix type="matrix" values="0 0 0 0 0.99609375  0 0 0 0 0.99609375  0 0 0 0 0.99609375  0 0 0 1 0" class="icon-fecolormatrix"></feColorMatrix></filter> <filter id="colorsf6527516912"><feColorMatrix type="matrix" values="0 0 0 0 0.99609375  0 0 0 0 0.99609375  0 0 0 0 0.99609375  0 0 0 1 0" class="icon-fecolormatrix"></feColorMatrix></filter> <filter id="colorsb575009881"><feColorMatrix type="matrix" values="0 0 0 0 0  0 0 0 0 0  0 0 0 0 0  0 0 0 1 0" class="icon-fecolormatrix"></feColorMatrix></filter></defs></g></g></g><g transform="translate(156.22773718628417, 0)"><g class="name-imagesvg"><g><rect fill="#fff" fill-opacity="0" stroke-width="2" x="0" y="0" width="43.271937497322284" height="40" class="image-rect"></rect> <svg filter="url(#colors4775790344)" x="0" y="0" width="43.271937497322284" height="40" filtersec="colorsf1820235362" class="image-svg-svg primary" style="overflow: visible;"><svg xmlns="http://www.w3.org/2000/svg" viewBox="0 0 131.96 121.98"><path d="M66 8.7A40.81 40.81 0 0 0 0 40.85v65.42a15.71 15.71 0 0 0 31.42 0V40.85a9.43 9.43 0 0 1 18.85 0A40.79 40.79 0 0 1 66 8.7z" fill="#ffd100"></path><path d="M91.11 0A40.62 40.62 0 0 0 66 8.7a40.79 40.79 0 0 1 15.69 32.15 9.43 9.43 0 0 1 18.85 0v65.42a15.71 15.71 0 0 0 31.42 0V40.85A40.9 40.9 0 0 0 91.11 0z" fill="#f0f"></path><path d="M66 8.7a40.79 40.79 0 0 0-15.73 32.15v65.42a15.71 15.71 0 1 0 31.42 0V40.85A40.79 40.79 0 0 0 66 8.7z" fill="#ee2e0b"></path></svg></svg> <defs><filter id="colors4775790344"><feColorMatrix type="matrix" values="0 0 0 0 0.99609375  0 0 0 0 0.99609375  0 0 0 0 0.99609375  0 0 0 1 0" class="icon-fecolormatrix"></feColorMatrix></filter> <filter id="colorsf1820235362"><feColorMatrix type="matrix" values="0 0 0 0 0.99609375  0 0 0 0 0.99609375  0 0 0 0 0.99609375  0 0 0 1 0" class="icon-fecolormatrix"></feColorMatrix></filter> <filter id="colorsb187283775"><feColorMatrix type="matrix" values="0 0 0 0 0  0 0 0 0 0  0 0 0 0 0  0 0 0 1 0" class="icon-fecolormatrix"></feColorMatrix></filter></defs></g></g></g><g transform="translate(199.49967468360646, 0)"><g class="name-imagesvg"><g><rect fill="#fff" fill-opacity="0" stroke-width="2" x="0" y="0" width="29.311640012782355" height="40" class="image-rect"></rect> <svg filter="url(#colors6832197917)" x="0" y="0" width="29.311640012782355" height="40" filtersec="colorsf6504726444" class="image-svg-svg primary" style="overflow: visible;"><svg xmlns="http://www.w3.org/2000/svg" viewBox="0 0 89.4 122"><path d="M15.81 43.76a15.71 15.71 0 0 1 15.71 15.71V15.71a15.71 15.71 0 0 0-31.42 0v43.76a15.71 15.71 0 0 1 15.71-15.71z" fill="#f0f"></path><path d="M73.69 0A15.71 15.71 0 0 0 58 15.71v66.64a8.22 8.22 0 0 1-8.19 8.2h-5a15.71 15.71 0 0 1 0 31.42h5A39.66 39.66 0 0 0 89.4 82.35V15.71A15.71 15.71 0 0 0 73.69 0z" fill="#00d5ff"></path><path d="M29 106.26a15.71 15.71 0 0 1 15.75-15.71h-2.27a11 11 0 0 1-11-11V59.47A15.71 15.71 0 1 1 .1 61.05a13.88 13.88 0 0 1 0-1.58v20.12A42.43 42.43 0 0 0 42.48 122h2.27A15.71 15.71 0 0 1 29 106.29z" fill="#ffd100"></path><path d="M15.81 76a16.1 16.1 0 0 0 0-32.2A16 16 0 0 0 0 59.87 16 16 0 0 0 15.81 76z" fill="#ee2e0b"></path><circle cx="44.75" cy="106.25" r="15.71" fill="#45ae17"></circle></svg></svg> <defs><filter id="colors6832197917"><feColorMatrix type="matrix" values="0 0 0 0 0.99609375  0 0 0 0 0.99609375  0 0 0 0 0.99609375  0 0 0 1 0" class="icon-fecolormatrix"></feColorMatrix></filter> <filter id="colorsf6504726444"><feColorMatrix type="matrix" values="0 0 0 0 0.99609375  0 0 0 0 0.99609375  0 0 0 0 0.99609375  0 0 0 1 0" class="icon-fecolormatrix"></feColorMatrix></filter> <filter id="colorsb9493286211"><feColorMatrix type="matrix" values="0 0 0 0 0  0 0 0 0 0  0 0 0 0 0  0 0 0 1 0" class="icon-fecolormatrix"></feColorMatrix></filter></defs></g></g></g><g transform="translate(228.81131469638882, 0)"><g class="name-imagesvg"><g><rect fill="#fff" fill-opacity="0" stroke-width="2" x="0" y="0" width="33.81149536270003" height="40" class="image-rect"></rect> <svg filter="url(#colors1988915558)" x="0" y="0" width="33.81149536270003" height="40" filtersec="colorsf401828217" class="image-svg-svg primary" style="overflow: visible;"><svg xmlns="http://www.w3.org/2000/svg" viewBox="0 0 102.84 121.68"><path d="M39.4 60.84A15.55 15.55 0 0 1 55 45.28H38.85a7.08 7.08 0 1 1-.53-14.15h38.53A15.56 15.56 0 0 0 76.82 0h-38a38.2 38.2 0 0 0-1.24 76.4H55a15.56 15.56 0 0 1-15.6-15.56z" fill="#ffd100"></path><path d="M44.11 106.12a15.55 15.55 0 0 1 15.54-15.56h-33a15.56 15.56 0 0 0 0 31.12h33a15.57 15.57 0 0 1-15.54-15.56z" fill="#f0f"></path><path d="M64.65 45.28H55a15.56 15.56 0 0 1 0 31.12h9.68a7.08 7.08 0 0 1 0 14.16h-5a15.56 15.56 0 0 1 0 31.12h5a38.2 38.2 0 0 0 0-76.4z" fill="#00d5ff"></path><path d="M70.52 60.84A15.56 15.56 0 1 0 55 76.4a15.56 15.56 0 0 0 15.52-15.56z" fill="#45ae17"></path><path d="M75.22 106.12a15.56 15.56 0 1 0-15.57 15.56 15.56 15.56 0 0 0 15.57-15.56z" fill="#2300fd"></path></svg></svg> <defs><filter id="colors1988915558"><feColorMatrix type="matrix" values="0 0 0 0 0.99609375  0 0 0 0 0.99609375  0 0 0 0 0.99609375  0 0 0 1 0" class="icon-fecolormatrix"></feColorMatrix></filter> <filter id="colorsf401828217"><feColorMatrix type="matrix" values="0 0 0 0 0.99609375  0 0 0 0 0.99609375  0 0 0 0 0.99609375  0 0 0 1 0" class="icon-fecolormatrix"></feColorMatrix></filter> <filter id="colorsb6462816621"><feColorMatrix type="matrix" values="0 0 0 0 0  0 0 0 0 0  0 0 0 0 0  0 0 0 1 0" class="icon-fecolormatrix"></feColorMatrix></filter></defs></g></g></g></g></g></g> </g><defs v-gra="od"></defs></g></svg>