<svg version="1.0" xmlns="http://www.w3.org/2000/svg" xmlns:xlink="http://www.w3.org/1999/xlink" x="0" y="0" width="2400" height="436.8429135443969" viewBox="46.77588424682617 102.57100830078124 246.44822387695314 44.8579833984375" preserveAspectRatio="xMidYMid meet" color-interpolation-filters="sRGB"><g><defs><linearGradient id="92" x1="0%" y1="0%" x2="100%" y2="0%"><stop offset="0%" stop-color="#fa71cd"></stop> <stop offset="100%" stop-color="#9b59b6"></stop></linearGradient><linearGradient id="93" x1="0%" y1="0%" x2="100%" y2="0%"><stop offset="0%" stop-color="#f9d423"></stop> <stop offset="100%" stop-color="#f83600"></stop></linearGradient><linearGradient id="94" x1="0%" y1="0%" x2="100%" y2="0%"><stop offset="0%" stop-color="#0064d2"></stop> <stop offset="100%" stop-color="#1cb0f6"></stop></linearGradient><linearGradient id="95" x1="0%" y1="0%" x2="100%" y2="0%"><stop offset="0%" stop-color="#f00978"></stop> <stop offset="100%" stop-color="#3f51b1"></stop></linearGradient><linearGradient id="96" x1="0%" y1="0%" x2="100%" y2="0%"><stop offset="0%" stop-color="#7873f5"></stop> <stop offset="100%" stop-color="#ec77ab"></stop></linearGradient><linearGradient id="97" x1="0%" y1="0%" x2="100%" y2="0%"><stop offset="0%" stop-color="#f9d423"></stop> <stop offset="100%" stop-color="#e14fad"></stop></linearGradient><linearGradient id="98" x1="0%" y1="0%" x2="100%" y2="0%"><stop offset="0%" stop-color="#009efd"></stop> <stop offset="100%" stop-color="#2af598"></stop></linearGradient><linearGradient id="99" x1="0%" y1="0%" x2="100%" y2="0%"><stop offset="0%" stop-color="#ffcc00"></stop> <stop offset="100%" stop-color="#00b140"></stop></linearGradient><linearGradient id="100" x1="0%" y1="0%" x2="100%" y2="0%"><stop offset="0%" stop-color="#d51007"></stop> <stop offset="100%" stop-color="#ff8177"></stop></linearGradient><linearGradient id="102" x1="0%" y1="0%" x2="100%" y2="0%"><stop offset="0%" stop-color="#a2b6df"></stop> <stop offset="100%" stop-color="#0c3483"></stop></linearGradient><linearGradient id="103" x1="0%" y1="0%" x2="100%" y2="0%"><stop offset="0%" stop-color="#7ac5d8"></stop> <stop offset="100%" stop-color="#eea2a2"></stop></linearGradient><linearGradient id="104" x1="0%" y1="0%" x2="100%" y2="0%"><stop offset="0%" stop-color="#00ecbc"></stop> <stop offset="100%" stop-color="#007adf"></stop></linearGradient><linearGradient id="105" x1="0%" y1="0%" x2="100%" y2="0%"><stop offset="0%" stop-color="#b88746"></stop> <stop offset="100%" stop-color="#fdf5a6"></stop></linearGradient></defs><g fill="#feffff" class="iconlettersvg-g iconlettersvg" transform="translate(49.22435164451599,104.98910212516785)"><g><g class="tp-name"><g transform="scale(1)"><g transform="translate(0, 0)"><g class="name-imagesvg"><g><rect fill="#feffff" fill-opacity="0" stroke-width="2" x="0" y="0" width="26.876847538546883" height="40" class="image-rect"></rect> <svg x="0" y="0" width="26.876847538546883" height="40" filtersec="colorsb3056048327" class="image-svg-svg primary" style="overflow: visible;"><svg xmlns="http://www.w3.org/2000/svg" viewBox="0 0 95.91 143.15"><path d="M40.05 81c6 1.83 11.71 3.09 16.56 5 18.13 7.24 13.78 22.65 1.92 28.55a4.5 4.5 0 0 0-2.52 4v19.24a4.53 4.53 0 0 0 5.77 4.34c40.36-11.13 48.52-63.79 4.87-81.21-6.59-2.63-13-4.05-18.73-5.79-10.45-3.13-16.77-7.92-17.8-13.34-.81-4.29 1.63-9.17 4.46-11.4A20.47 20.47 0 0 1 38 28.2a4.49 4.49 0 0 0 2.45-4V5A4.53 4.53 0 0 0 34.69.61 48.5 48.5 0 0 0 17.8 9.16C8.53 16.48.53 31 3.53 46.82 5.26 56 12.3 72.59 40.05 81z" fill="#d344b0"></path><path d="M61.62.13A4.53 4.53 0 0 0 56 4.51v18.94a4.49 4.49 0 0 0 2.77 4.15 17.81 17.81 0 0 1 8.93 7.7 13.53 13.53 0 0 0 23.8-12.88C85.8 11.86 75.25 3.45 61.62.13z" fill="#f65349"></path><path d="M40.46 138.64v-18.7a4.55 4.55 0 0 0-3.09-4.28c-5.18-1.82-9.45-5.14-11.67-9.37a13.54 13.54 0 1 0-24.24 12c6.36 12.6 18.87 21.61 33.48 24.71a4.53 4.53 0 0 0 5.52-4.36z" fill="#fcc048"></path></svg></svg> </g></g></g><g transform="translate(26.876847538546883, 0)"><g class="name-imagesvg"><g><rect fill="#feffff" fill-opacity="0" stroke-width="2" x="0" y="0" width="33.058308160630084" height="40" class="image-rect"></rect> <svg x="0" y="0" width="33.058308160630084" height="40" filtersec="colorsb7279005691" class="image-svg-svg primary" style="overflow: visible;"><svg xmlns="http://www.w3.org/2000/svg" viewBox="0 0 121.04 146.23"><path d="M115.65 2.73a13.53 13.53 0 0 0-19 2.66l-25 33.21a3.63 3.63 0 0 0 .35 4.74 69.91 69.91 0 0 1 11.9 15.55 3.6 3.6 0 0 0 6 .43l28.37-37.64a13.53 13.53 0 0 0-2.62-18.95z" fill="#2fc77a"></path><path d="M60.52 53.4l-36.18-48A13.53 13.53 0 0 0 2.73 21.68L47 80.41v52.28a13.53 13.53 0 1 0 27.06 0V80.41C74.05 66.78 60.52 53.4 60.52 53.4z" fill="#f96f14"></path></svg></svg> </g></g></g><g transform="translate(59.93515569917697, 0)"><g class="name-imagesvg"><g><rect fill="#feffff" fill-opacity="0" stroke-width="2" x="0" y="0" width="26.876847538546883" height="40" class="image-rect"></rect> <svg x="0" y="0" width="26.876847538546883" height="40" filtersec="colorsb587426612" class="image-svg-svg primary" style="overflow: visible;"><svg xmlns="http://www.w3.org/2000/svg" viewBox="0 0 95.91 143.15"><path d="M40.05 81c6 1.83 11.71 3.09 16.56 5 18.13 7.24 13.78 22.65 1.92 28.55a4.5 4.5 0 0 0-2.52 4v19.24a4.53 4.53 0 0 0 5.77 4.34c40.36-11.13 48.52-63.79 4.87-81.21-6.59-2.63-13-4.05-18.73-5.79-10.45-3.13-16.77-7.92-17.8-13.34-.81-4.29 1.63-9.17 4.46-11.4A20.47 20.47 0 0 1 38 28.2a4.49 4.49 0 0 0 2.45-4V5A4.53 4.53 0 0 0 34.69.61 48.5 48.5 0 0 0 17.8 9.16C8.53 16.48.53 31 3.53 46.82 5.26 56 12.3 72.59 40.05 81z" fill="#d344b0"></path><path d="M61.62.13A4.53 4.53 0 0 0 56 4.51v18.94a4.49 4.49 0 0 0 2.77 4.15 17.81 17.81 0 0 1 8.93 7.7 13.53 13.53 0 0 0 23.8-12.88C85.8 11.86 75.25 3.45 61.62.13z" fill="#f65349"></path><path d="M40.46 138.64v-18.7a4.55 4.55 0 0 0-3.09-4.28c-5.18-1.82-9.45-5.14-11.67-9.37a13.54 13.54 0 1 0-24.24 12c6.36 12.6 18.87 21.61 33.48 24.71a4.53 4.53 0 0 0 5.52-4.36z" fill="#fcc048"></path></svg></svg> </g></g></g><g transform="translate(86.81200323772384, 0)"><g class="name-imagesvg"><g><rect fill="#feffff" fill-opacity="0" stroke-width="2" x="0" y="0" width="28.215716417485517" height="40" class="image-rect"></rect> <svg x="0" y="0" width="28.215716417485517" height="40" filtersec="colorsb1526905686" class="image-svg-svg primary" style="overflow: visible;"><svg xmlns="http://www.w3.org/2000/svg" viewBox="0 0 103.21 146.32"><path d="M42.59 42.61a4.5 4.5 0 0 0-4.51 4.51v85.67a13.53 13.53 0 0 0 14.18 13.51 13.78 13.78 0 0 0 12.88-13.9V47.12a4.51 4.51 0 0 0-4.51-4.51z" fill="#07b4e5"></path><path d="M103.21 13.53A13.53 13.53 0 0 0 89.68 0H13.53a13.53 13.53 0 0 0 0 27.06h76.15a13.52 13.52 0 0 0 13.53-13.53z" fill="#2fc77a"></path></svg></svg> </g></g></g><g transform="translate(115.02771965520935, 0)"><g class="name-imagesvg"><g><rect fill="#feffff" fill-opacity="0" stroke-width="2" x="0" y="0" width="24.708242690258633" height="40" class="image-rect"></rect> <svg x="0" y="0" width="24.708242690258633" height="40" filtersec="colorsb3088034923" class="image-svg-svg primary" style="overflow: visible;"><svg xmlns="http://www.w3.org/2000/svg" viewBox="0 0 90.32 146.23"><path d="M47.12 84.82h23.46A13.53 13.53 0 0 0 84.1 70.64a13.78 13.78 0 0 0-13.9-12.88H47.12a4.51 4.51 0 0 0-4.51 4.51v18a4.51 4.51 0 0 0 4.51 4.55z" fill="#f96f14"></path><path d="M47.12 146.23h29.67A13.54 13.54 0 0 0 90.31 132a13.79 13.79 0 0 0-13.9-12.88H47.12a4.51 4.51 0 0 0-4.51 4.51v18a4.51 4.51 0 0 0 4.51 4.6z" fill="#07b4e5"></path><path d="M47.12 27.06h29.67a13.53 13.53 0 0 0 13.52-14.18A13.79 13.79 0 0 0 76.41 0H47.12a4.51 4.51 0 0 0-4.51 4.51v18a4.51 4.51 0 0 0 4.51 4.55z" fill="#f65349"></path><path d="M22.55 0h-9A13.53 13.53 0 0 0 0 13.53v119.16a13.54 13.54 0 0 0 13.53 13.54h9a4.51 4.51 0 0 0 4.51-4.51V4.51A4.51 4.51 0 0 0 22.55 0z" fill="#fcc048"></path></svg></svg> </g></g></g><g transform="translate(139.73596234546798, 0)"><g class="name-imagesvg"><g><rect fill="#feffff" fill-opacity="0" stroke-width="2" x="0" y="0" width="44.2732760053373" height="40" class="image-rect"></rect> <svg x="0" y="0" width="44.2732760053373" height="40" filtersec="colorsb5347977789" class="image-svg-svg primary" style="overflow: visible;"><svg xmlns="http://www.w3.org/2000/svg" viewBox="0 0 161.97 146.22"><path d="M127.57 96.28l7.58 39a13.53 13.53 0 1 0 26.56-5.17L146.1 49.76a3.2 3.2 0 0 0-6.1-.46l-11.27 31.5a29.43 29.43 0 0 0-1.16 15.48z" fill="#d344b0"></path><path d="M135.35 15.88c3.29-9.22-5.62-18.46-14.8-15a13.46 13.46 0 0 0-7.83 7.6L83.49 80.8a2.71 2.71 0 0 1-5 0C47.84 5 49.11 8 48.62 7.12A13.38 13.38 0 0 0 41.19.78a13.54 13.54 0 0 0-17.78 10.16L.25 130.1a13.53 13.53 0 1 0 26.57 5.17L41.26 61c28.82 71.27 27.26 67.49 27.74 68.43a13.54 13.54 0 0 0 24.52-1.23l15.34-37.95z" fill="#2fc77a"></path></svg></svg> </g></g></g><g transform="translate(184.00923835080528, 0)"><g class="name-imagesvg"><g><rect fill="#feffff" fill-opacity="0" stroke-width="2" x="0" y="0" width="30.697519343990415" height="40" class="image-rect"></rect> <svg x="0" y="0" width="30.697519343990415" height="40" filtersec="colorsb4233246810" class="image-svg-svg primary" style="overflow: visible;"><svg xmlns="http://www.w3.org/2000/svg" viewBox="0 0 110.74 144.28"><path d="M47.71 139.77v-18.91a4.47 4.47 0 0 0-2.8-4.16 28.36 28.36 0 0 1-17.85-26.3V13.53A13.52 13.52 0 0 0 12.88 0 13.78 13.78 0 0 0 0 13.91V90.4a55.46 55.46 0 0 0 42.1 53.75 4.52 4.52 0 0 0 5.61-4.38z" fill="#07b4e5"></path><path d="M63.25 120.77v19a4.52 4.52 0 0 0 5.63 4.37 55.45 55.45 0 0 0 41.86-53.74V13.53A13.53 13.53 0 0 0 96.55 0a13.78 13.78 0 0 0-12.87 13.91V90.4A28.33 28.33 0 0 1 66 116.62a4.48 4.48 0 0 0-2.75 4.15z" fill="#d344b0"></path></svg></svg> </g></g></g><g transform="translate(214.7067576947957, 0)"><g class="name-imagesvg"><g><rect fill="#feffff" fill-opacity="0" stroke-width="2" x="0" y="0" width="26.876847538546883" height="40" class="image-rect"></rect> <svg x="0" y="0" width="26.876847538546883" height="40" filtersec="colorsb9941980791" class="image-svg-svg primary" style="overflow: visible;"><svg xmlns="http://www.w3.org/2000/svg" viewBox="0 0 95.91 143.15"><path d="M40.05 81c6 1.83 11.71 3.09 16.56 5 18.13 7.24 13.78 22.65 1.92 28.55a4.5 4.5 0 0 0-2.52 4v19.24a4.53 4.53 0 0 0 5.77 4.34c40.36-11.13 48.52-63.79 4.87-81.21-6.59-2.63-13-4.05-18.73-5.79-10.45-3.13-16.77-7.92-17.8-13.34-.81-4.29 1.63-9.17 4.46-11.4A20.47 20.47 0 0 1 38 28.2a4.49 4.49 0 0 0 2.45-4V5A4.53 4.53 0 0 0 34.69.61 48.5 48.5 0 0 0 17.8 9.16C8.53 16.48.53 31 3.53 46.82 5.26 56 12.3 72.59 40.05 81z" fill="#d344b0"></path><path d="M61.62.13A4.53 4.53 0 0 0 56 4.51v18.94a4.49 4.49 0 0 0 2.77 4.15 17.81 17.81 0 0 1 8.93 7.7 13.53 13.53 0 0 0 23.8-12.88C85.8 11.86 75.25 3.45 61.62.13z" fill="#f65349"></path><path d="M40.46 138.64v-18.7a4.55 4.55 0 0 0-3.09-4.28c-5.18-1.82-9.45-5.14-11.67-9.37a13.54 13.54 0 1 0-24.24 12c6.36 12.6 18.87 21.61 33.48 24.71a4.53 4.53 0 0 0 5.52-4.36z" fill="#fcc048"></path></svg></svg> </g></g></g></g></g></g> </g><defs v-gra="od"></defs></g></svg>